<svg width="265" height="33" viewBox="0 0 265 33" fill="none" xmlns="http://www.w3.org/2000/svg">
<g clip-path="url(#clip0_210_2)">
<path d="M7.44138 3.3929C7.44138 5.42595 5.86085 6.7858 3.7173 6.7858C1.57375 6.7858 0 5.42595 0 3.3929C0 1.35985 1.58053 0 3.72408 0C5.86763 0 7.44816 1.35985 7.44816 3.3929H7.44138ZM0.746173 28.3011V9.25643H6.69521V28.3011H0.746173Z" fill="#E30000"/>
<path d="M22.9554 28.3011V14.8843H16.8571V28.3011H10.8945V9.25644H28.9044V28.3011H22.9554Z" fill="#E30000"/>
<path d="M35.0028 14.7766H31.7061V9.23622H35.0028V1.61566H46.7788V7.15605H40.9654V9.23622H46.7788V14.7766H40.9654V28.2809H35.0028V14.7766Z" fill="#E30000"/>
<path d="M69.0282 18.7754C69.0282 24.5177 64.5783 28.7521 58.9345 28.7521C53.2907 28.7521 48.8408 24.4841 48.8408 18.7754C48.8408 13.0667 53.3586 8.79865 58.9345 8.79865C64.5105 8.79865 69.0282 13.0128 69.0282 18.7754ZM54.878 18.7754C54.878 21.448 56.6621 23.1444 58.9413 23.1444C61.2205 23.1444 63.0045 21.448 63.0045 18.7754C63.0045 16.1028 61.2544 14.4064 58.9413 14.4266C56.6485 14.4131 54.878 16.1365 54.878 18.7754Z" fill="#E30000"/>
<path d="M123.77 9.25641V28.3011H117.807V14.8843H111.573V28.3011H105.624V1.62912H111.573V9.25641H123.77Z" fill="#E30000"/>
<path d="M141.427 11.4039V9.25643H147.389V28.3011H141.427V26.2546C140.185 27.7491 138.401 28.7589 135.959 28.7589C131.048 28.7589 127.276 24.6793 127.276 18.7821C127.276 12.8849 131.136 8.80539 135.925 8.80539C138.388 8.80539 140.192 9.86231 141.427 11.4107V11.4039ZM133.307 18.7754C133.307 21.448 135.091 23.1444 137.37 23.1444C139.649 23.1444 141.433 21.448 141.433 18.7754C141.433 16.1028 139.683 14.4064 137.37 14.4266C135.057 14.4131 133.307 16.1365 133.307 18.7754Z" fill="#E30000"/>
<path d="M157.531 14.8642V28.2809H151.582V9.25644H164.084V14.8843H157.524V14.8709L157.531 14.8642Z" fill="#E30000"/>
<path d="M176.138 8.79865C181.083 8.79865 185.377 12.0232 186.028 17.227C186.164 18.3849 186.082 19.2264 185.994 19.8996H172.251C172.454 22.3164 174.069 23.7638 176.348 23.7638C178.03 23.7638 179.543 22.9761 179.903 21.3133H186.035C185.289 26.0526 181.022 28.7521 176.314 28.7521C170.399 28.7521 166.187 24.4168 166.187 18.7956C166.187 13.1744 170.433 8.80538 176.145 8.80538L176.138 8.79865ZM172.671 16.022H179.74C179.245 14.2583 177.65 13.6187 176.24 13.6187C174.578 13.5985 173.316 14.4939 172.671 16.022Z" fill="#E30000"/>
<path d="M78.4909 13.9217V16.0894H101.426V28.3011H72.5283V23.6157H95.5512V21.0979H72.5283V9.23624H101.426V13.9082H78.4909V13.9217Z" fill="#E30000"/>
<path d="M235.35 17.6983L239.23 10.9394H240.349V17.6983H235.35Z" fill="#E30000"/>
<path fill-rule="evenodd" clip-rule="evenodd" d="M259.831 0H200.693V5.12301H195.524V33H249.5V27.877H254.669V33H259.838V27.877H254.669V22.754H259.838V27.877H265.007V22.754H259.838V0H259.831ZM208.067 13.612C208.067 12.3733 207.368 11.451 206.283 11.0741L208.732 6.25398H205.469C201.996 11.5049 201.84 12.6897 201.84 13.41C201.84 15.8874 203.712 16.4933 204.98 16.4933C206.731 16.4933 208.06 15.3421 208.06 13.612H208.067ZM217.326 18.661H227.176V6.26071H212.178V11H222.027V13.9284H212.178V26.746H227.176V22.0067H217.326V18.6744V18.661ZM248.347 17.6983H245.498V6.26071H236.496L229.923 17.6983V22.377H240.349V26.7393H245.498V22.377H248.347V17.6983Z" fill="#E30000"/>
</g>
<defs>
<clipPath id="clip0_210_2">
<rect width="265" height="33" fill="white"/>
</clipPath>
</defs>
</svg>
